<svg width="24" height="24" fill="none" xmlns="http://www.w3.org/2000/svg"><path d="M8.7 15.9 4.8 12l3.9-3.9a.984.984 0 0 0 0-1.4.984.984 0 0 0-1.4 0l-4.59 4.59a.996.996 0 0 0 0 1.41l4.59 4.6c.39.39 1.01.39 1.4 0a.984.984 0 0 0 0-1.4Zm6.6 0 3.9-3.9-3.9-3.9a.984.984 0 0 1 0-1.4.984.984 0 0 1 1.4 0l4.59 4.59c.39.39.39 1.02 0 1.41l-4.59 4.6a.984.984 0 0 1-1.4 0 .984.984 0 0 1 0-1.4Z" fill="url(#a)"/><defs><linearGradient id="a" x1="12" y1="6.407" x2="12" y2="17.593" gradientUnits="userSpaceOnUse"><stop stop-color="#701CDA"/><stop offset="1" stop-color="#A839FF"/></linearGradient></defs></svg>